<?xml version="1.0" encoding="UTF-8" standalone="no"?>
<svg
   xmlns:dc="http://purl.org/dc/elements/1.1/"
   xmlns:cc="http://creativecommons.org/ns#"
   xmlns:rdf="http://www.w3.org/1999/02/22-rdf-syntax-ns#"
   xmlns:svg="http://www.w3.org/2000/svg"
   xmlns="http://www.w3.org/2000/svg"
   xmlns:xlink="http://www.w3.org/1999/xlink"
   xmlns:sodipodi="http://sodipodi.sourceforge.net/DTD/sodipodi-0.dtd"
   xmlns:inkscape="http://www.inkscape.org/namespaces/inkscape"
   width="35.914803mm"
   height="35.914589mm"
   viewBox="0 0 35.914803 35.914589"
   version="1.1"
   id="svg8"
   sodipodi:docname="gwg-logo-v2.svg"
   inkscape:version="1.0.1 (3bc2e813f5, 2020-09-07)">
  <defs
     id="defs2">
    <linearGradient
       inkscape:collect="always"
       id="linearGradient2083">
      <stop
         style="stop-color:#654ff0;stop-opacity:1"
         offset="0"
         id="stop2079" />
      <stop
         style="stop-color:#322931;stop-opacity:1"
         offset="1"
         id="stop2081" />
    </linearGradient>
    <linearGradient
       inkscape:collect="always"
       id="linearGradient1952">
      <stop
         style="stop-color:#ffeeee;stop-opacity:0"
         offset="0"
         id="stop2026" />
      <stop
         style="stop-color:#ffffff;stop-opacity:1"
         offset="1"
         id="stop2028" />
    </linearGradient>
    <radialGradient
       inkscape:collect="always"
       xlink:href="#linearGradient2083"
       id="radialGradient1932-1-5"
       cx="305.74371"
       cy="147.04044"
       fx="305.74371"
       fy="147.04044"
       r="306"
       gradientUnits="userSpaceOnUse"
       gradientTransform="matrix(1.0804432,0,0,2.2742648,-25.092394,-255.87876)" />
    <radialGradient
       inkscape:collect="always"
       xlink:href="#linearGradient1952"
       id="radialGradient2024-7"
       cx="215.31351"
       cy="351.99017"
       fx="215.31351"
       fy="351.99017"
       r="67.870117"
       gradientTransform="matrix(5.1674115,0,0,1.200564,-897.3,-60.889665)"
       gradientUnits="userSpaceOnUse" />
  </defs>
  <sodipodi:namedview
     id="base"
     pagecolor="#000000"
     bordercolor="#666666"
     borderopacity="1.0"
     inkscape:pageopacity="0"
     inkscape:pageshadow="2"
     inkscape:zoom="1"
     inkscape:cx="243.59969"
     inkscape:cy="166.59531"
     inkscape:document-units="mm"
     inkscape:current-layer="layer1"
     inkscape:document-rotation="0"
     showgrid="false"
     inkscape:window-width="2560"
     inkscape:window-height="1361"
     inkscape:window-x="-9"
     inkscape:window-y="-9"
     inkscape:window-maximized="1"
     showguides="true"
     fit-margin-top="0"
     fit-margin-left="0"
     fit-margin-right="0"
     fit-margin-bottom="0" />
  <metadata
     id="metadata5">
    <rdf:RDF>
      <cc:Work
         rdf:about="">
        <dc:format>image/svg+xml</dc:format>
        <dc:type
           rdf:resource="http://purl.org/dc/dcmitype/StillImage" />
        <dc:title></dc:title>
      </cc:Work>
    </rdf:RDF>
  </metadata>
  <g
     inkscape:label="Ebene 1"
     inkscape:groupmode="layer"
     id="layer1"
     transform="translate(-92.294822,-95.418416)">
    <flowRoot
       style="font-style:normal;font-weight:normal;font-size:40px;line-height:25px;font-family:sans-serif;letter-spacing:0px;word-spacing:0px;fill:#000000;fill-opacity:1;stroke:none"
       id="flowRoot38"
       xml:space="preserve"
       transform="matrix(2.0051674,0,0,2.0051674,42.142186,-378.70454)"><flowRegion
         id="flowRegion40"><rect
           y="51.42857"
           x="261.42856"
           height="40"
           width="2.1428571"
           id="rect42" /></flowRegion><flowPara
         id="flowPara44" /></flowRoot>
    <g
       id="g881-8-1-5"
       transform="matrix(0.42949307,0,0,0.42949307,61.360091,84.125151)">
      <g
         id="g887-1-5-3"
         transform="matrix(0.13663542,0,0,0.13663542,72.026645,26.294406)">
        <path
           d="m 376,0 c 0,1.08 0,2.16 0,3.3 0,38.76 -31.42,70.17 -70.17,70.17 -38.76,0 -70.17,-31.42 -70.17,-70.17 v 0 c 0,-1.14 0,-2.22 0,-3.3 L 0,0 V 612 H 612 V 0 Z"
           fill="#654ff0"
           id="path873-4-9"
           style="fill:url(#radialGradient1932-1-5);fill-opacity:1;stroke:none;stroke-width:31.7414;stroke-miterlimit:4;stroke-dasharray:none;stroke-opacity:1;paint-order:normal" />
      </g>
      <path
         id="path4634-0-8-4"
         style="font-style:normal;font-variant:normal;font-weight:900;font-stretch:normal;font-size:192px;line-height:25px;font-family:Roboto;-inkscape-font-specification:'Roboto Heavy';letter-spacing:0px;word-spacing:0px;mix-blend-mode:normal;fill:url(#radialGradient2024-7);fill-opacity:1;fill-rule:nonzero;stroke:none;stroke-width:5.47237;stroke-miterlimit:4;stroke-dasharray:none;stroke-opacity:1;paint-order:markers stroke fill"
         d="m 147.08984,360.63672 39.06641,76.1914 h -4.94922 l -0.31641,2.47852 c -1.67041,-2.0045 -3.99131,-3.00586 -6.96289,-3.00586 -2.35616,0 -4.42135,0.60511 -6.19726,1.81836 -1.77592,1.19566 -3.1384,2.90169 -4.08789,5.11719 -0.9495,2.2155 -1.42578,4.76477 -1.42578,7.64844 v 0.3164 c 0,4.46616 1.07358,8.03632 3.21875,10.70899 2.14516,2.65508 4.95795,3.98242 8.43945,3.98242 2.60233,0 4.75731,-0.94086 6.46289,-2.82227 v 0.89649 c 0,4.04415 -1.96954,6.0664 -5.9082,6.0664 -2.70783,0 -4.88819,-0.97599 -6.54102,-2.92773 l -3.71875,5.22265 c 1.03742,1.266 2.53068,2.29469 4.48242,3.08594 1.96933,0.79125 4.00134,1.1875 6.09375,1.1875 2.91883,0 5.48568,-0.50165 7.70118,-1.5039 2.21549,-0.98467 3.90395,-2.40962 5.06445,-4.27344 1.17808,-1.84626 1.76562,-4.02661 1.76562,-6.54102 v -21.36718 l 12.35743,24.10156 h 7.98437 l 6.21484,-13.41797 h 0.1504 l 5.80664,13.41797 h 7.83789 l 10.55273,-21.09961 c -0.36326,1.52801 -0.54687,3.18316 -0.54687,4.9668 v 0.3164 c 0,4.46616 1.07358,8.03632 3.21875,10.70899 2.14515,2.65508 4.95794,3.98242 8.43945,3.98242 2.60232,0 4.75536,-0.94086 6.46094,-2.82227 v 0.89649 c 0,4.04415 -1.96759,6.0664 -5.90625,6.0664 -2.70783,0 -4.88819,-0.97599 -6.54102,-2.92773 l -3.71875,5.22265 c 1.03742,1.266 2.53068,2.29469 4.48242,3.08594 1.96933,0.79125 4.00133,1.1875 6.09375,1.1875 2.91883,0 5.48568,-0.50165 7.70117,-1.5039 2.2155,-0.98467 3.90396,-2.40962 5.06446,-4.27344 1.17808,-1.84626 1.76562,-4.02661 1.76562,-6.54102 V 436.82812 H 258.625 l -0.31641,2.47852 c -1.67041,-2.0045 -3.9913,-3.00586 -6.96289,-3.00586 -2.35616,0 -4.42135,0.60511 -6.19726,1.81836 -0.68941,0.46415 -1.316,1.00717 -1.88086,1.625 l 39.5625,-79.10742 h -52.34375 v 0.73242 c 0,8.59688 -6.9698,15.5625 -15.56445,15.5625 -8.59688,0 -15.5625,-6.96784 -15.5625,-15.5625 v -0.73242 z m 29.10547,82.52148 c 1.899,0 3.281,0.65001 4.14258,1.95118 v 12 c -0.87917,1.28358 -2.27873,1.92578 -4.19531,1.92578 -1.5825,0 -2.81224,-0.67734 -3.69141,-2.03125 -0.87916,-1.3715 -1.31836,-3.22588 -1.31836,-5.56446 0,-2.69024 0.447,-4.73982 1.34375,-6.14648 0.89675,-1.42425 2.13625,-2.13477 3.71875,-2.13477 z m 77.41797,0 c 1.89899,0 3.27904,0.65001 4.14063,1.95118 v 12 c -0.87916,1.28358 -2.27678,1.92578 -4.19336,1.92578 -1.58251,0 -2.81225,-0.67734 -3.69141,-2.03125 -0.87917,-1.3715 -1.31836,-3.22588 -1.31836,-5.56446 0,-2.69024 0.447,-4.73982 1.34375,-6.14648 0.89674,-1.42425 2.13625,-2.13477 3.71875,-2.13477 z"
         transform="matrix(0.61603633,0,0,0.61603633,-18.586539,-195.87086)" />
    </g>
    <g
       id="g881-4-0-3-6"
       transform="matrix(0.42949307,0,0,0.42949307,61.359942,84.125148)">
      <g
         id="g887-6-0-6-3"
         transform="matrix(0.13663542,0,0,0.13663542,72.026645,26.294406)" />
    </g>
  </g>
</svg>
